<svg id="图层_1" data-name="图层 1" xmlns="http://www.w3.org/2000/svg" xmlns:xlink="http://www.w3.org/1999/xlink" viewBox="0 0 172.25 26"><defs><linearGradient id="未命名的渐变" x1="-375.73" y1="438.31" x2="-375.73" y2="437.51" gradientTransform="matrix(-4.95, 0, 0, 15.75, -1836.46, -6883.88)" gradientUnits="userSpaceOnUse"><stop offset="0" stop-color="#0067cc"/><stop offset="1" stop-color="#00a0e8"/></linearGradient><mask id="mask" x="7.24" y="15.5" width="11.53" height="10.51" maskUnits="userSpaceOnUse"><g transform="translate(0 0)"><g id="mask-3"><polygon id="path-2" points="18.77 26 7.24 26 7.24 15.49 18.77 15.49 18.77 26" style="fill:#fff;fill-rule:evenodd"/></g></g></mask><linearGradient id="未命名的渐变_2" x1="-375.73" y1="438.3" x2="-375.73" y2="437.51" gradientTransform="matrix(-4.95, 0, 0, 15.75, -1857.51, -6883.96)" xlink:href="#未命名的渐变"/><mask id="mask-2" x="7.24" y="0" width="11.53" height="10.51" maskUnits="userSpaceOnUse"><g transform="translate(0 0)"><g id="mask-6"><polygon id="path-5" points="18.77 10.51 7.24 10.51 7.24 0 18.77 0 18.77 10.51" style="fill:#fff;fill-rule:evenodd"/></g></g></mask><linearGradient id="未命名的渐变_3" x1="-339.64" y1="450.73" x2="-339.64" y2="449.73" gradientTransform="matrix(-11.53, 0, 0, 10.51, -3904.51, -4726.42)" xlink:href="#未命名的渐变"/></defs><title>工业视觉logo</title><g id="首页"><g id="首页-免费申请"><g id="工业视觉logo"><g id="编组-2"><polygon id="路径" points="32.98 7.81 32.98 5.57 48.36 5.57 48.36 7.81 41.9 7.81 41.9 18.42 49.34 18.42 49.34 20.65 32 20.65 32 18.42 39.43 18.42 39.43 7.81 32.98 7.81"/><path id="形状" d="M51.81,21V18.79H57V4.38h2.23V18.79h2.6V4.38h2.22V18.79H69.3V21Zm3-5.07c-.7-2.16-1.6-4.73-2.69-7.73l2-.69q1.41,3.62,2.8,7.69Zm11.31,0-2-.82q1.44-3.21,3-7.52l2,.73c-1.17,3.18-2.16,5.72-3,7.61Z" transform="translate(0 0)"/><path id="形状-2" data-name="形状" d="M77.61,16.19c-.5-.65-1.08-1.34-1.73-2.07v7.75H73.93V15c-.56.55-1.18,1.11-1.87,1.69-.07-.38-.28-1.16-.62-2.36a12.25,12.25,0,0,0,3.88-4.63H71.85V7.83h2.92C73.9,6.29,73.36,5.34,73.13,5l1.77-.91c.52.76,1.12,1.69,1.79,2.81l-1.79,1h2.58V9.75a26.6,26.6,0,0,1-1.6,2.85v1l1-.92,1.79,1.81V4.83h9.57V15.65H86.17V6.86H80.69v9h-2v-.61Zm7.75,5.26a2.11,2.11,0,0,1-1.62-.56,2.66,2.66,0,0,1-.53-1.81V16.82c-.8,1.7-2.51,3.41-5.12,5.1-.51-.65-1-1.22-1.42-1.71A12.83,12.83,0,0,0,81,16.51a9.33,9.33,0,0,0,1.27-4.76c.06-1.29.09-2.53.09-3.74h2.06c0,1,0,2.19-.12,3.62A19.07,19.07,0,0,1,84,14.7h1.2v4a1.1,1.1,0,0,0,.17.7.79.79,0,0,0,.59.17h.37a1,1,0,0,0,.66-.19,1.31,1.31,0,0,0,.31-.7q.16-1.23.24-2.19c.63.24,1.26.48,1.88.7-.07.72-.18,1.5-.33,2.36A2.33,2.33,0,0,1,88.26,21a2.81,2.81,0,0,1-1.73.45Z" transform="translate(0 0)"/><path id="形状-3" data-name="形状" d="M92.58,22c-.42-.78-.81-1.45-1.15-2a20.18,20.18,0,0,0,5.51-1.73,3.88,3.88,0,0,0,2-2.43,8.91,8.91,0,0,0,.3-2.3h2.19a11.78,11.78,0,0,1-.34,2.37h1.26v2.64a1.09,1.09,0,0,0,.24.81,1.19,1.19,0,0,0,.81.21h2.23a1.53,1.53,0,0,0,.9-.21,1.16,1.16,0,0,0,.38-.74,16.67,16.67,0,0,0,.26-2c.59.21,1.27.42,2,.62a15.13,15.13,0,0,1-.39,2.41,2.18,2.18,0,0,1-.83,1.32,3.34,3.34,0,0,1-1.81.41H102.6a2.7,2.7,0,0,1-1.86-.52,2.39,2.39,0,0,1-.58-1.8V18a7.25,7.25,0,0,1-2.62,2.2A23.77,23.77,0,0,1,92.58,22Zm-.64-10.57v-4h2.9C94.58,7,94,6.12,93.19,4.9l2.22-.6q.59.81,1.68,2.43l-1.93.68h7.67c.73-1,1.43-2.09,2.1-3.17l2.28.53-1.85,2.64h3.28v4h-2.17v6.13h-2.18V12.67h-8v5H94.09V11.43Zm2.19-2.15v1.56h12.3V9.28Zm5.76-2c-.33-.71-.83-1.62-1.48-2.75l2.2-.51c.38.61.87,1.47,1.49,2.56Z" transform="translate(0 0)"/><path id="形状-4" data-name="形状" d="M119.8,5.34l6,15.34H123l-1.49-4h-6.45l-1.47,4h-2.83l6-15.34Zm-1.51,2.18h-.06c-.13.46-.28.91-.43,1.36-.7,1.92-1.41,3.84-2.11,5.75h5.24c-.73-1.92-1.46-3.85-2.2-5.77C118.45,8,118.3,7.6,118.29,7.52Z" transform="translate(0 0)"/><polygon id="路径-2" data-name="路径" points="128.62 20.68 128.62 5.36 131.24 5.36 131.24 20.68 128.62 20.68"/><path id="形状-5" data-name="形状" d="M135.49,7.05V5h15.92V7.05h-6.82v6.81h7.65V16h-7.65V21.9h-2.34V16h-7.63V13.86h7.63V7.05Zm3.58,6.06c-1-1.34-2.1-2.62-3.17-3.85L137.52,8q1.81,2,3.3,3.73Zm8.44,0-1.62-1.41A39,39,0,0,0,149.17,8l1.73,1.26q-1.83,2.26-3.39,3.9Z" transform="translate(0 0)"/><path id="形状-6" data-name="形状" d="M170.39,12.74l-1.24-1.35q-6.54.16-10.67.34a17.73,17.73,0,0,0-2.71.32l-1.05-2.11a11.74,11.74,0,0,0,2.11-1.3A41.73,41.73,0,0,0,161.59,4L164,5c-1.91,1.77-3.7,3.33-5.39,4.67,2.76-.09,5.64-.17,8.66-.24l-2-2.1,1.66-1.16q2.41,2.28,5.32,5.22Zm-14,9.16V13.42h13.74V21.9h-2.25V20.75h-9.25V21.9Zm2.24-6.5v3.38h9.25V15.4Z" transform="translate(0 0)"/></g><g id="编组备份"><path id="Fill-1" d="M17.31,13.68V12.32a3,3,0,0,0-1.57-2.63l-1.12-.63a3.3,3.3,0,0,0-3.22,0l-1.12.63a3,3,0,0,0-1.57,2.63v1.36a3,3,0,0,0,1.57,2.63l1.12.63a3.3,3.3,0,0,0,3.22,0l1.12-.63a3,3,0,0,0,1.57-2.63" transform="translate(0 0)" style="fill:#c6000c;fill-rule:evenodd"/><path id="Fill-3" d="M21.05,20.87l3.09-1.74A3.61,3.61,0,0,0,26,16V10a3.61,3.61,0,0,0-1.86-3.13L21.05,5.13Z" transform="translate(0 0)" style="fill-rule:evenodd;fill:url(#未命名的渐变)"/><g id="编组"><g style="mask:url(#mask)"><path id="Fill-5" d="M14.92,18.67a4,4,0,0,1-3.83,0l-2.2-1.24a3.72,3.72,0,0,1-1.65-1.94v7.84l3.85,2.17a3.9,3.9,0,0,0,3.83,0l3.85-2.17V15.49a3.72,3.72,0,0,1-1.65,1.94Z" transform="translate(0 0)" style="fill:#0067cc;fill-rule:evenodd"/></g></g><g id="编组-2-2" data-name="编组"><path id="Fill-7" d="M5,20.87V5.13L1.86,6.87A3.61,3.61,0,0,0,0,10v6a3.61,3.61,0,0,0,1.86,3.13Z" transform="translate(0 0)" style="fill-rule:evenodd;fill:url(#未命名的渐变_2)"/></g><g id="编组-3" data-name="编组"><g style="mask:url(#mask-2)"><path id="Fill-9" d="M7.24,10.51A3.72,3.72,0,0,1,8.89,8.57l2.2-1.24a4,4,0,0,1,3.83,0l2.2,1.24a3.72,3.72,0,0,1,1.65,1.94V2.67L14.92.5a3.9,3.9,0,0,0-3.83,0L7.24,2.67Z" transform="translate(0 0)" style="fill-rule:evenodd;fill:url(#未命名的渐变_3)"/></g></g></g></g></g></g></svg>